<?xml version="1.0" encoding="UTF-8" standalone="no"?>
<!-- Created with Inkscape (http://www.inkscape.org/) -->

<svg
   width="210mm"
   height="297mm"
   viewBox="0 0 210 297"
   version="1.1"
   id="svg5"
   inkscape:version="1.1.2 (b8e25be833, 2022-02-05)"
   sodipodi:docname="dessin.svg"
   xmlns:inkscape="http://www.inkscape.org/namespaces/inkscape"
   xmlns:sodipodi="http://sodipodi.sourceforge.net/DTD/sodipodi-0.dtd"
   xmlns="http://www.w3.org/2000/svg"
   xmlns:svg="http://www.w3.org/2000/svg">
  <sodipodi:namedview
     id="namedview7"
     pagecolor="#ffffff"
     bordercolor="#666666"
     borderopacity="1.0"
     inkscape:pageshadow="2"
     inkscape:pageopacity="0.0"
     inkscape:pagecheckerboard="0"
     inkscape:document-units="mm"
     showgrid="false"
     inkscape:zoom="0.7198092"
     inkscape:cx="396.63288"
     inkscape:cy="558.48133"
     inkscape:window-width="1920"
     inkscape:window-height="1001"
     inkscape:window-x="-32000"
     inkscape:window-y="-32000"
     inkscape:window-maximized="0"
     inkscape:current-layer="layer1" />
  <defs
     id="defs2" />
  <g
     inkscape:label="Calque 1"
     inkscape:groupmode="layer"
     id="layer1">
    <path
       style="display:inline;fill:none;fill-rule:evenodd;stroke:#000000;stroke-width:0.264583px;stroke-linecap:butt;stroke-linejoin:miter;stroke-opacity:1"
       d="M 41.168317,208.04703 148.86757,207.31188"
       id="path960"
       inkscape:connector-type="polyline"
       inkscape:connector-curvature="0" />
    <path
       style="display:inline;fill:none;fill-rule:evenodd;stroke:#000000;stroke-width:0.264583px;stroke-linecap:butt;stroke-linejoin:miter;stroke-opacity:1"
       d="m 148.13243,160.26237 0.73514,47.04951"
       id="path984"
       inkscape:connector-type="polyline"
       inkscape:connector-curvature="0" />
    <path
       style="fill:none;fill-rule:evenodd;stroke:#000000;stroke-width:0.264583px;stroke-linecap:butt;stroke-linejoin:miter;stroke-opacity:1"
       d="M 40.433167,161.3651 148.13243,160.26237"
       id="path986"
       inkscape:connector-type="polyline"
       inkscape:connector-curvature="0" />
    <path
       style="fill:none;fill-rule:evenodd;stroke:#000000;stroke-width:0.264583px;stroke-linecap:butt;stroke-linejoin:miter;stroke-opacity:1"
       d="m 40.433167,161.3651 0.73515,46.68193"
       id="path990"
       inkscape:connector-type="polyline"
       inkscape:connector-curvature="0" />
    <path
       style="fill:none;fill-rule:evenodd;stroke:#000000;stroke-width:0.264583px;stroke-linecap:butt;stroke-linejoin:miter;stroke-opacity:1"
       d="M 148.13243,160.26237 V 135.6349"
       id="path992"
       inkscape:connector-type="polyline"
       inkscape:connector-curvature="0" />
    <path
       style="fill:none;fill-rule:evenodd;stroke:#000000;stroke-width:0.264583px;stroke-linecap:butt;stroke-linejoin:miter;stroke-opacity:1"
       d="m 148.86757,207.31188 0.36758,26.09777"
       id="path994"
       inkscape:connector-type="polyline"
       inkscape:connector-curvature="0" />
    <path
       style="fill:none;fill-rule:evenodd;stroke:#000000;stroke-width:0.264583px;stroke-linecap:butt;stroke-linejoin:miter;stroke-opacity:1"
       d="m 148.13243,135.6349 46.68192,43.37376"
       id="path996"
       inkscape:connector-type="polyline"
       inkscape:connector-curvature="0" />
    <path
       style="fill:#87deaa;fill-rule:evenodd;stroke:#000000;stroke-width:0.264583px;stroke-linecap:butt;stroke-linejoin:miter;stroke-opacity:1"
       d="m 194.81435,179.00866 -45.5792,54.40099"
       id="path998"
       inkscape:connector-type="polyline"
       inkscape:connector-curvature="0" />
    <path
       style="fill:#6f917c;stroke:#000000;stroke-width:1.39144"
       d="m 156.47082,755.57485 c -0.46799,-16.71047 -1.24403,-56.17076 -1.72453,-87.68953 l -0.87364,-57.30685 26.91064,0.008 c 32.53874,0.009 293.49806,-2.49982 342.4623,-3.29296 l 34.92174,-0.56568 0.83801,30.05787 c 0.46092,16.53183 1.22874,56.07708 1.7063,87.87833 l 0.8683,57.82047 -163.05044,0.8831 c -89.67774,0.48571 -180.63584,1.26718 -202.12911,1.73661 l -39.07868,0.85352 z"
       id="path1074"
       transform="scale(0.26458333)" />
    <path
       style="fill:#6f917c;stroke:#000000;stroke-width:1.39144"
       d="m 564.89864,848.09073 c -1.52043,-52.91683 -3.88613,-257.9337 -3.40804,-295.34895 l 0.46387,-36.3032 85.44974,79.37017 c 46.99735,43.65359 85.65873,79.88714 85.91416,80.51899 0.33603,0.83116 -128.69863,156.14072 -164.60103,198.11819 l -2.96194,3.46313 z"
       id="path1113"
       transform="scale(0.26458333)" />
    <path
       style="fill:#6f917c;stroke:#000000;stroke-width:1.39144"
       d="M 157.90832,754.22808 C 157.41502,737.49424 156.59768,698.64 156.092,667.88532 l -0.91943,-55.9176 h 24.77555 c 43.75703,0 307.19423,-2.64894 342.55088,-3.44445 l 34.17517,-0.76893 0.89358,30.23915 c 0.49149,16.63153 1.30517,55.61627 1.80819,86.63275 l 0.91459,56.3936 -153.37556,0.9219 c -84.35656,0.50705 -174.69075,1.32456 -200.74266,1.8167 l -47.36709,0.89481 z"
       id="path1479"
       transform="scale(0.26458333)" />
    <path
       style="fill:#6f917c;stroke:#000000;stroke-width:1.39144"
       d="m 159.30084,752.84488 c -0.49853,-16.73717 -1.32217,-54.96897 -1.8303,-84.95956 l -0.92388,-54.52834 31.82529,-0.005 c 47.84023,-0.007 283.28684,-2.53425 327.86634,-3.51947 l 39.02849,-0.86255 0.89863,30.32575 c 0.49426,16.67916 1.31379,55.07536 1.8212,85.3249 l 0.92255,54.99917 -142.96007,0.92412 c -78.62805,0.50827 -168.33597,1.33085 -199.35095,1.82794 l -56.39086,0.90381 z"
       id="path1518"
       transform="scale(0.26458333)" />
    <path
       style="fill:#6f917c;stroke:#000000;stroke-width:1.39144"
       d="m 566.35397,847.79411 c -1.28861,-36.64773 -3.97806,-272.1727 -3.45408,-302.48629 l 0.44384,-25.67682 59.70846,55.54585 c 32.83966,30.55021 70.68858,65.86108 84.10872,78.46859 l 24.40024,22.92274 -22.91984,27.78514 c -35.19988,42.67194 -140.55483,168.79473 -141.00037,168.79473 -0.21751,0 -0.79664,-11.40928 -1.28697,-25.35394 z"
       id="path1557"
       transform="scale(0.26458333)" />
    <path
       style="fill:#536c5d;stroke:#000000;stroke-width:1.39144"
       d="m 567.60831,839.39523 c -1.09025,-37.24459 -3.53971,-230.54517 -3.55734,-280.72824 l -0.0126,-35.93503 5.90434,5.27883 c 5.37577,4.80626 137.05033,127.3313 152.99575,142.3647 l 6.77644,6.38886 -80.6018,96.73926 -80.60179,96.73925 z"
       id="path1596"
       transform="scale(0.26458333)" />
  </g>
</svg>
