<?xml version="1.0" encoding="UTF-8" standalone="no"?>
<!-- Created with Inkscape (http://www.inkscape.org/) -->

<svg
   width="210mm"
   height="297mm"
   viewBox="0 0 210 297"
   version="1.1"
   id="svg5"
   inkscape:version="1.1.2 (b8e25be833, 2022-02-05)"
   sodipodi:docname="dessin_descend.svg"
   xmlns:inkscape="http://www.inkscape.org/namespaces/inkscape"
   xmlns:sodipodi="http://sodipodi.sourceforge.net/DTD/sodipodi-0.dtd"
   xmlns="http://www.w3.org/2000/svg"
   xmlns:svg="http://www.w3.org/2000/svg">
  <sodipodi:namedview
     id="namedview7"
     pagecolor="#ffffff"
     bordercolor="#666666"
     borderopacity="1.0"
     inkscape:pageshadow="2"
     inkscape:pageopacity="0.0"
     inkscape:pagecheckerboard="0"
     inkscape:document-units="mm"
     showgrid="false"
     inkscape:zoom="0.7198092"
     inkscape:cx="396.63289"
     inkscape:cy="557.7867"
     inkscape:window-width="1902"
     inkscape:window-height="1001"
     inkscape:window-x="0"
     inkscape:window-y="0"
     inkscape:window-maximized="0"
     inkscape:current-layer="layer1" />
  <defs
     id="defs2" />
  <g
     inkscape:label="Calque 1"
     inkscape:groupmode="layer"
     id="layer1">
    <path
       style="display:none;fill:#6f917c;stroke:#000000;stroke-width:1.39144"
       d="m 156.47082,755.57485 c -0.46799,-16.71047 -1.24403,-56.17076 -1.72453,-87.68953 l -0.87364,-57.30685 26.91064,0.008 c 32.53874,0.009 293.49806,-2.49982 342.4623,-3.29296 l 34.92174,-0.56568 0.83801,30.05787 c 0.46092,16.53183 1.22874,56.07708 1.7063,87.87833 l 0.8683,57.82047 -163.05044,0.8831 c -89.67774,0.48571 -180.63584,1.26718 -202.12911,1.73661 l -39.07868,0.85352 z"
       id="path1074"
       transform="scale(0.26458333)" />
    <path
       style="display:none;fill:#6f917c;stroke:#000000;stroke-width:1.39144"
       d="m 564.89864,848.09073 c -1.52043,-52.91683 -3.88613,-257.9337 -3.40804,-295.34895 l 0.46387,-36.3032 85.44974,79.37017 c 46.99735,43.65359 85.65873,79.88714 85.91416,80.51899 0.33603,0.83116 -128.69863,156.14072 -164.60103,198.11819 l -2.96194,3.46313 z"
       id="path1113"
       transform="scale(0.26458333)" />
    <path
       style="fill:#6f917c;stroke:#000000;stroke-width:0.370085"
       d="m 109.25924,236.89916 c -4.46061,0.0741 -14.64864,0.15956 -22.64007,0.19001 l -14.529877,0.0554 0.109454,-8.44945 c 0.164029,-12.70134 0.308224,-75.21994 0.200505,-87.05899 l -0.09431,-10.36486 8.082069,-0.13295 c 4.445143,-0.0731 14.676956,-0.15697 22.737372,-0.18631 l 14.6553,-0.0534 -0.25006,37.95833 c -0.13753,20.87709 -0.22979,44.69693 -0.20502,52.93297 l 0.045,14.97461 z"
       id="path1518" />
    <path
       style="display:none;fill:#6f917c;stroke:#000000;stroke-width:1.39144"
       d="m 566.35397,847.79411 c -1.28861,-36.64773 -3.97806,-272.1727 -3.45408,-302.48629 l 0.44384,-25.67682 59.70846,55.54585 c 32.83966,30.55021 70.68858,65.86108 84.10872,78.46859 l 24.40024,22.92274 -22.91984,27.78514 c -35.19988,42.67194 -140.55483,168.79473 -141.00037,168.79473 -0.21751,0 -0.79664,-11.40928 -1.28697,-25.35394 z"
       id="path1557"
       transform="scale(0.26458333)" />
    <path
       style="fill:#536c5d;stroke:#000000;stroke-width:0.368152"
       d="m 55.466653,232.91085 c 9.85767,-0.1292 61.005577,0.0492 74.281517,0.25904 l 9.50663,0.1503 -1.42175,1.53942 c -1.29448,1.4016 -34.27125,35.71214 -38.316477,39.86621 l -1.71914,1.76539 -25.24767,-21.73668 -25.24767,-21.73667 z"
       id="path1596" />
  </g>
</svg>
